<svg xmlns="http://www.w3.org/2000/svg" xml:space="preserve" width="2048" height="2048" style="shape-rendering:geometricPrecision;text-rendering:geometricPrecision;image-rendering:optimizeQuality;fill-rule:evenodd;clip-rule:evenodd"><defs><style>.fil1{fill:none}.fil0{fill:#212121;fill-rule:nonzero}</style></defs><g id="Layer_x0020_1"><path class="fil0" d="M549.646 223.999h948.707c36.784 0 70.205 15.027 94.412 39.234 24.206 24.207 39.233 57.627 39.233 94.411v902.102c-21.32-4.85-42.656-9.64-64.001-14.383V357.645c0-19.119-7.846-36.524-20.483-49.161S1517.472 288 1498.353 288H549.646c-19.119 0-36.524 7.845-49.162 20.483C487.847 321.12 480 338.526 480 357.644v836.366a1667.991 1667.991 0 0 1-18.766 16.42l-11.122 9.574v.007c-9.921 8.325-19.995 16.47-30.27 24.354l-3.844.511V357.644c0-36.784 15.028-70.204 39.234-94.411 24.208-24.207 57.629-39.234 94.413-39.234zM563.2 337.776H1516.8v348.446H531.2V337.777h32zm889.598 64.002H595.201V622.22h857.597V401.778zM563.2 735.998H750.876v206.225H531.2V735.998h32zm123.675 64.001h-91.673v78.222h91.673V800zm131.633-64.001H1006.184v206.225H786.508V735.998h32zm123.675 64.001H850.51v78.222h91.673V800zm131.634-64.001H1261.493v206.225h-219.676V735.998h32zm123.675 64.001h-91.673v78.222h91.673V800zm131.633-64.001H1516.801v206.225h-219.676V735.998h32zm123.675 64.001h-91.673v78.222h91.673V800zM563.202 992H750.878v35.872c-35.213 1.641-67.593 12.086-98.174 28.129h-57.501v37.346c-22.199 16.92-43.323 35.57-64.002 54.32V991.998h32.001zm921.598-.002h32.001v236.249a8473.03 8473.03 0 0 0-64.002-35.647v-136.6h-91.673v86.875a7016.929 7016.929 0 0 0-28.649-15.196 5761.041 5761.041 0 0 0-35.353-18.508V991.998H1484.8z"/><g id="_394196536"><path id="_394189288" class="fil1" d="M0 0h2048v2048H0z"/><path id="_394189912" class="fil1" d="M255.999 255.999h1536v1536h-1536z"/></g><path class="fil0" d="M1724.98 1380.79c-25.995-8.69-220.38-51.171-220.938-51.293l-9-3.5c-1.022-.58-356.186-202.49-391.455-202.49h-4.822v-.126c-110.42.016-336.134.26-338.12.26-29.483 0-57.475 11.848-85.762 30.552-31.136 20.59-63.264 49.886-97.736 81.32-17.523 15.97-35.909 32.707-53.282 47.664l-.061-.072c-19.166 16.501-39.195 32.86-60.043 48.134l-14.75 5.875-147.812 19.66c-3.568 1.58-6.694 4.15-9.063 7.392-2.6 3.557-4.135 8.046-4.135 13.002v173.25a22.075 22.075 0 0 0 6.483 15.657 22.076 22.076 0 0 0 15.66 6.483h103.875a216.62 216.62 0 0 0-.684 17.171 215.43 215.43 0 0 0 5.144 46.83H310.143c-23.783 0-45.319-9.643-60.91-25.233-15.59-15.589-25.234-37.125-25.234-60.909v-173.249c0-18.885 6.175-36.434 16.636-50.753 10.58-14.479 25.723-25.546 43.413-31.19l5.499-1.249 142.898-19.007c17.373-13.023 33.901-26.59 49.67-40.167v-.126c19.517-16.803 36.21-31.994 52.032-46.413 36.281-33.087 70.096-63.92 105.484-87.322 38.24-25.286 77.373-41.302 121.012-41.302l338.12-.01v-.124h4.823c48.721 0 376.73 184.819 418.566 208.504 29.79 6.538 195.412 43.03 223.079 52.28 36.832 12.315 60.197 49.61 71.115 94.696 10.958 45.25 9.875 100.233-2.81 142.194-6.82 22.52-24.02 45.429-53.684 60.841-21.537 11.19-49.939 18.54-85.936 18.54h-99.372a216.273 216.273 0 0 0 4.442-64.002h94.93c24.863 0 43.324-4.475 56.436-11.287 12.697-6.597 19.617-14.941 21.935-22.593 9.666-31.974 10.46-74.005 2.058-108.693-6.061-25.033-16.026-44.735-29.365-49.195zm-459.979 255.77H748.134a216.273 216.273 0 0 0 4.442-64.002h507.965a216.62 216.62 0 0 0-.684 17.171 215.43 215.43 0 0 0 5.144 46.831z"/><path class="fil0" d="M583.636 1723.8c-36.973 0-70.502-15.034-94.776-39.306l.07-.07c-24.319-24.348-39.38-57.846-39.38-94.693 0-36.974 15.035-70.5 39.307-94.766 24.273-24.27 57.797-39.303 94.779-39.303 36.976 0 70.498 15.032 94.768 39.303 24.268 24.267 39.301 57.787 39.301 94.766 0 36.973-15.034 70.495-39.303 94.765-24.27 24.27-57.794 39.304-94.766 39.304zm-44.31-89.772c11.36 11.357 27.036 18.392 44.31 18.392 17.271 0 32.943-7.035 44.3-18.39 11.353-11.356 18.39-27.03 18.39-44.3 0-17.274-7.035-32.945-18.388-44.299-11.356-11.356-27.03-18.389-44.302-18.389-17.278 0-32.955 7.034-44.311 18.389-11.358 11.356-18.395 27.027-18.395 44.3 0 17.362 6.984 33.026 18.258 44.297h.139zM1418.96 1723.8c-36.973 0-70.495-15.034-94.765-39.304-24.269-24.27-39.303-57.792-39.303-94.765 0-36.974 15.034-70.496 39.303-94.765 24.27-24.27 57.792-39.304 94.765-39.304 36.976 0 70.499 15.032 94.77 39.303 24.266 24.267 39.3 57.787 39.3 94.766 0 36.973-15.035 70.495-39.304 94.765-24.27 24.27-57.793 39.304-94.766 39.304zm-44.298-89.77c11.356 11.356 27.025 18.39 44.298 18.39 17.27 0 32.943-7.035 44.3-18.39 11.355-11.356 18.39-27.03 18.39-44.3 0-17.274-7.034-32.945-18.388-44.299-11.356-11.356-27.028-18.389-44.302-18.389-17.273 0-32.942 7.034-44.298 18.39-11.357 11.356-18.39 27.026-18.39 44.299 0 17.27 7.036 32.943 18.39 44.3zM413.114 1280H1568v64H394.908z"/><path class="fil0" d="M960.002 1088v224H896v-224z"/></g></svg>